999
dxfrw 0.6.3
  0
SECTION
  2
HEADER
  9
$ACADVER
  1
AC1021
  9
$DWGCODEPAGE
  3
ANSI_1252
  9
$INSBASE
 10
0
 20
0
 30
0
  9
$EXTMIN
 10
36509.31314333927
 20
-840.9395204819282
 30
0
  9
$EXTMAX
 10
36933.31314333928
 20
-415.9395204819239
 30
0
  9
$LIMMIN
 10
0
 20
0
  9
$LIMMAX
 10
12
 20
9
  9
$ORTHOMODE
 70
    0
  9
$REGENMODE
 70
    1
  9
$FILLMODE
 70
    1
  9
$QTEXTMODE
 70
    0
  9
$MIRRTEXT
 70
    0
  9
$LTSCALE
 40
1
  9
$ATTMODE
 70
    2
  9
$TEXTSIZE
 40
8
  9
$TRACEWID
 40
0.05
  9
$TEXTSTYLE
  7
plan
  9
$CLAYER
  8
A-WALL
  9
$CELTYPE
  6
ByLayer
  9
$CECOLOR
 62
  256
  9
$CELTSCALE
 40
1
  9
$DISPSILH
 70
    0
  9
$DIMSCALE
 40
1
  9
$DIMASZ
 40
3
  9
$DIMEXO
 40
4
  9
$DIMDLI
 40
2
  9
$DIMRND
 40
0
  9
$DIMDLE
 40
0
  9
$DIMEXE
 40
3
  9
$DIMTP
 40
0
  9
$DIMTM
 40
0
  9
$DIMTXT
 40
6
  9
$DIMCEN
 40
0.09
  9
$DIMTSZ
 40
0
  9
$DIMTOL
 70
    0
  9
$DIMLIM
 70
    0
  9
$DIMTIH
 70
    0
  9
$DIMTOH
 70
    0
  9
$DIMSE1
 70
    0
  9
$DIMSE2
 70
    0
  9
$DIMTAD
 70
    0
  9
$DIMZIN
 70
    3
  9
$DIMBLK
  1

  9
$DIMASO
 70
    1
  9
$DIMSHO
 70
    1
  9
$DIMPOST
  1

  9
$DIMAPOST
  1

  9
$DIMALT
 70
    0
  9
$DIMALTD
 70
    2
  9
$DIMALTF
 40
25.4
  9
$DIMLFAC
 40
1
  9
$DIMTOFL
 70
    1
  9
$DIMTVP
 40
0
  9
$DIMTIX
 70
    0
  9
$DIMSOXD
 70
    0
  9
$DIMSAH
 70
    0
  9
$DIMBLK1
  1

  9
$DIMBLK2
  1

  9
$DIMSTYLE
  2
WORKING
  9
$DIMCLRD
 70
  256
  9
$DIMCLRE
 70
  256
  9
$DIMCLRT
 70
    7
  9
$DIMTFAC
 40
1
  9
$DIMGAP
 40
1
  9
$DIMJUST
 70
    0
  9
$DIMSD1
 70
    0
  9
$DIMSD2
 70
    0
  9
$DIMTOLJ
 70
    1
  9
$DIMTZIN
 70
    0
  9
$DIMALTZ
 70
    0
  9
$DIMALTTZ
 70
    0
  9
$DIMUPT
 70
    0
  9
$DIMDEC
 70
    3
  9
$DIMTDEC
 70
    3
  9
$DIMALTU
 70
    2
  9
$DIMALTTD
 70
    2
  9
$DIMTXSTY
  7
plan
  9
$DIMAUNIT
 70
    0
  9
$DIMADEC
 70
    0
  9
$DIMALTRND
 40
0
  9
$DIMAZIN
 70
    0
  9
$DIMDSEP
 70
   46
  9
$DIMATFIT
 70
    3
  9
$DIMFRAC
 70
    0
  9
$DIMLDRBLK
  1

  9
$DIMLUNIT
 70
    4
  9
$DIMLWD
 70
   -1
  9
$DIMLWE
 70
   -1
  9
$DIMTMOVE
 70
    1
  9
$DIMFXL
 40
1
  9
$DIMFXLON
 70
    0
  9
$DIMJOGANG
 40
0.7854
  9
$DIMTFILL
 70
    0
  9
$DIMTFILLCLR
 70
    0
  9
$DIMARCSYM
 70
    0
  9
$DIMLTYPE
  6

  9
$DIMLTEX1
  6

  9
$DIMLTEX2
  6

  9
$LUNITS
 70
    4
  9
$LUPREC
 70
    4
  9
$SKETCHINC
 40
0.1
  9
$FILLETRAD
 40
0
  9
$AUNITS
 70
    0
  9
$AUPREC
 70
    2
  9
$MENU
  1
.
  9
$ELEVATION
 40
0
  9
$PELEVATION
 40
0
  9
$THICKNESS
 40
0
  9
$LIMCHECK
 70
    0
  9
$CHAMFERA
 40
25
  9
$CHAMFERB
 40
25
  9
$CHAMFERC
 40
0
  9
$CHAMFERD
 40
0
  9
$SKPOLY
 70
    0
  9
$USRTIMER
 70
    1
  9
$ANGBASE
 50
0
  9
$ANGDIR
 70
    0
  9
$PDMODE
 70
   35
  9
$PDSIZE
 40
0
  9
$PLINEWID
 40
0
  9
$SPLFRAME
 70
    0
  9
$SPLINETYPE
 70
    6
  9
$SPLINESEGS
 70
    8
  9
$HANDSEED
  5
20000
  9
$SURFTAB1
 70
    6
  9
$SURFTAB2
 70
    6
  9
$SURFTYPE
 70
    6
  9
$SURFU
 70
    6
  9
$SURFV
 70
    6
  9
$UCSBASE
  2

  9
$UCSNAME
  2

  9
$UCSORG
 10
0
 20
0
 30
0
  9
$UCSXDIR
 10
1
 20
0
 30
0
  9
$UCSYDIR
 10
0
 20
1
 30
0
  9
$UCSORTHOREF
  2

  9
$UCSORTHOVIEW
 70
    0
  9
$UCSORGTOP
 10
0
 20
0
 30
0
  9
$UCSORGBOTTOM
 10
0
 20
0
 30
0
  9
$UCSORGLEFT
 10
0
 20
0
 30
0
  9
$UCSORGRIGHT
 10
0
 20
0
 30
0
  9
$UCSORGFRONT
 10
0
 20
0
 30
0
  9
$UCSORGBACK
 10
0
 20
0
 30
0
  9
$PUCSBASE
  2

  9
$PUCSNAME
  2

  9
$PUCSORG
 10
0
 20
0
 30
0
  9
$PUCSXDIR
 10
1
 20
0
 30
0
  9
$PUCSYDIR
 10
0
 20
1
 30
0
  9
$PUCSORTHOREF
  2

  9
$PUCSORTHOVIEW
 70
    0
  9
$PUCSORGTOP
 10
0
 20
0
 30
0
  9
$PUCSORGBOTTOM
 10
0
 20
0
 30
0
  9
$PUCSORGLEFT
 10
0
 20
0
 30
0
  9
$PUCSORGRIGHT
 10
0
 20
0
 30
0
  9
$PUCSORGFRONT
 10
0
 20
0
 30
0
  9
$PUCSORGBACK
 10
0
 20
0
 30
0
  9
$USERI1
 70
    0
  9
$USERI2
 70
    0
  9
$USERI3
 70
    0
  9
$USERI4
 70
    0
  9
$USERI5
 70
    0
  9
$USERR1
 40
0
  9
$USERR2
 40
0
  9
$USERR3
 40
0
  9
$USERR4
 40
0
  9
$USERR5
 40
0
  9
$WORLDVIEW
 70
    1
  9
$SHADEDGE
 70
    3
  9
$SHADEDIF
 70
   70
  9
$TILEMODE
 70
    1
  9
$MAXACTVP
 70
   64
  9
$PINSBASE
 10
0
 20
0
 30
0
  9
$PLIMCHECK
 70
    0
  9
$PEXTMIN
 10
0.0181534759400108
 20
0.0255371257697306
 30
-3.49181948e-08
  9
$PEXTMAX
 10
11.28254994842526
 20
7.861942348863657
 30
8.14935746e-08
  9
$GRIDMODE
 70
    1
  9
$SNAPSTYLE
 70
    0
  9
$PLIMMIN
 10
-0.1999994713490404
 20
-0.1999999969963014
  9
$PLIMMAX
 10
11.49000032680241
 20
8.066666445394201
  9
$UNITMODE
 70
    0
  9
$VISRETAIN
 70
    1
  9
$PLINEGEN
 70
    0
  9
$PSLTSCALE
 70
    1
  9
$TREEDEPTH
 70
 3020
  9
$CMLSTYLE
  2
WIN
  9
$CMLJUST
 70
    0
  9
$CMLSCALE
 40
1
  9
$PROXYGRAPHICS
 70
    1
  9
$MEASUREMENT
 70
    0
  9
$CELWEIGHT
370
   -1
  9
$ENDCAPS
280
    0
  9
$JOINSTYLE
280
    0
  9
$LWDISPLAY
290
    0
  9
$INSUNITS
 70
    2
  9
$HYPERLINKBASE
  1

  9
$STYLESHEET
  1
COLOR.ctb
  9
$XEDIT
290
    1
  9
$CEPSNTYPE
380
    0
  9
$PSTYLEMODE
290
    1
  9
$EXTNAMES
290
    1
  9
$PSVPSCALE
 40
0
  9
$OLESTARTUP
290
    0
  9
$SORTENTS
280
  127
  9
$INDEXCTL
280
    0
  9
$HIDETEXT
280
    1
  9
$XCLIPFRAME
290
    1
  9
$HALOGAP
280
    0
  9
$OBSCOLOR
 70
  257
  9
$OBSLTYPE
280
    0
  9
$INTERSECTIONDISPLAY
280
    0
  9
$INTERSECTIONCOLOR
 70
  257
  9
$DIMASSOC
280
    2
  9
$PROJECTNAME
  1

  9
$CAMERADISPLAY
290
    0
  9
$LENSLENGTH
 40
50
  9
$CAMERAHEIGHT
 40
0
  9
$STEPSPERSEC
 40
2
  9
$STEPSIZE
 40
50
  9
$3DDWFPREC
 40
2
  9
$PSOLWIDTH
 40
5
  9
$PSOLHEIGHT
 40
80
  9
$LOFTANG1
 40
1.570796326794897
  9
$LOFTANG2
 40
1.570796326794897
  9
$LOFTMAG1
 40
0
  9
$LOFTMAG2
 40
0
  9
$LOFTPARAM
 70
    7
  9
$LOFTNORMALS
280
    1
  9
$LATITUDE
 40
1
  9
$LONGITUDE
 40
1
  9
$NORTHDIRECTION
 40
0
  9
$TIMEZONE
 70
-8000
  9
$LIGHTGLYPHDISPLAY
280
    1
  9
$TILEMODELIGHTSYNCH
280
    1
  9
$SOLIDHIST
280
    1
  9
$SHOWHIST
280
    1
  9
$DWFFRAME
280
    2
  9
$DGNFRAME
280
    0
  9
$REALWORLDSCALE
290
    1
  9
$INTERFERECOLOR
 62
    1
  9
$CSHADOW
280
    0
  9
$SHADOWPLANELOCATION
 40
0
  0
ENDSEC
  0
SECTION
  2
CLASSES
  0
ENDSEC
  0
SECTION
  2
TABLES
  0
TABLE
  2
VPORT
  5
8
330
0
100
AcDbSymbolTable
 70
    1
  0
VPORT
  5
31
330
2
100
AcDbSymbolTableRecord
100
AcDbViewportTableRecord
  2
*ACTIVE
 70
    0
 10
0
 20
0
 11
1
 21
1
 12
18574.22398653043
 22
-165.4148514322559
 13
0
 23
0
 14
10
 24
10
 15
10
 25
10
 16
0
 26
0
 36
1
 17
0
 27
0
 37
0
 40
628.2657972239203
 41
1.619283065512979
 42
50
 43
0
 44
0
 50
0
 51
0
 71
    0
 72
  100
 73
    1
 74
    3
 75
    0
 76
    1
 77
    0
 78
    0
281
    0
 65
    1
110
0
120
0
130
0
111
1
121
0
131
0
112
0
122
1
132
0
 79
    0
146
0
348
10020
 60
    7
 61
    5
292
1
282
    1
141
0
142
0
 63
  250
421
3358443
  0
ENDTAB
  0
TABLE
  2
LTYPE
  5
5
330
0
100
AcDbSymbolTable
 70
    4
  0
LTYPE
  5
14
330
5
100
AcDbSymbolTableRecord
100
AcDbLinetypeTableRecord
  2
ByBlock
 70
    0
  3

 72
   65
 73
    0
 40
0
  0
LTYPE
  5
15
330
5
100
AcDbSymbolTableRecord
100
AcDbLinetypeTableRecord
  2
ByLayer
 70
    0
  3

 72
   65
 73
    0
 40
0
  0
LTYPE
  5
16
330
5
100
AcDbSymbolTableRecord
100
AcDbLinetypeTableRecord
  2
Continuous
 70
    0
  3
Solid line
 72
   65
 73
    0
 40
0
  0
LTYPE
  5
32
330
5
100
AcDbSymbolTableRecord
100
AcDbLinetypeTableRecord
  2
DOT
 70
    0
  3
Dot . . . . . . . . . . . . . . . . . . . . . .
 72
   65
 73
    2
 40
6.35
 49
0
 74
    0
 49
-6.35
 74
    0
  0
LTYPE
  5
33
330
5
100
AcDbSymbolTableRecord
100
AcDbLinetypeTableRecord
  2
DOTTINY
 70
    0
  3
Dot (.15x) .....................................
 72
   65
 73
    2
 40
0.9525
 49
0
 74
    0
 49
-0.9525
 74
    0
  0
LTYPE
  5
34
330
5
100
AcDbSymbolTableRecord
100
AcDbLinetypeTableRecord
  2
DOT2
 70
    0
  3
Dot (.5x) .....................................
 72
   65
 73
    2
 40
3.175
 49
0
 74
    0
 49
-3.175
 74
    0
  0
LTYPE
  5
35
330
5
100
AcDbSymbolTableRecord
100
AcDbLinetypeTableRecord
  2
DOTX2
 70
    0
  3
Dot (2x) .  .  .  .  .  .  .  .  .  .  .  .  .
 72
   65
 73
    2
 40
12.7
 49
0
 74
    0
 49
-12.7
 74
    0
  0
LTYPE
  5
36
330
5
100
AcDbSymbolTableRecord
100
AcDbLinetypeTableRecord
  2
DASHED
 70
    0
  3
Dashed _ _ _ _ _ _ _ _ _ _ _ _ _ _ _ _ _
 72
   65
 73
    2
 40
19.05
 49
12.7
 74
    0
 49
-6.35
 74
    0
  0
LTYPE
  5
37
330
5
100
AcDbSymbolTableRecord
100
AcDbLinetypeTableRecord
  2
DASHEDTINY
 70
    0
  3
Dashed (.15x) _ _ _ _ _ _ _ _ _ _ _ _ _ _ _ _ _
 72
   65
 73
    2
 40
2.8575
 49
1.905
 74
    0
 49
-0.9525
 74
    0
  0
LTYPE
  5
38
330
5
100
AcDbSymbolTableRecord
100
AcDbLinetypeTableRecord
  2
DASHED2
 70
    0
  3
Dashed (.5x) _ _ _ _ _ _ _ _ _ _ _ _ _ _ _ _ _
 72
   65
 73
    2
 40
9.524999999999999
 49
6.35
 74
    0
 49
-3.175
 74
    0
  0
LTYPE
  5
39
330
5
100
AcDbSymbolTableRecord
100
AcDbLinetypeTableRecord
  2
DASHEDX2
 70
    0
  3
Dashed (2x) ____  ____  ____  ____  ____  ___
 72
   65
 73
    2
 40
38.09999999999999
 49
25.4
 74
    0
 49
-12.7
 74
    0
  0
LTYPE
  5
3A
330
5
100
AcDbSymbolTableRecord
100
AcDbLinetypeTableRecord
  2
DASHDOT
 70
    0
  3
Dash dot __ . __ . __ . __ . __ . __ . __ . __
 72
   65
 73
    4
 40
25.4
 49
12.7
 74
    0
 49
-6.35
 74
    0
 49
0
 74
    0
 49
-6.35
 74
    0
  0
LTYPE
  5
3B
330
5
100
AcDbSymbolTableRecord
100
AcDbLinetypeTableRecord
  2
DASHDOTTINY
 70
    0
  3
Dash dot (.15x) _._._._._._._._._._._._._._._.
 72
   65
 73
    4
 40
3.81
 49
1.905
 74
    0
 49
-0.9525
 74
    0
 49
0
 74
    0
 49
-0.9525
 74
    0
  0
LTYPE
  5
3C
330
5
100
AcDbSymbolTableRecord
100
AcDbLinetypeTableRecord
  2
DASHDOT2
 70
    0
  3
Dash dot (.5x) _._._._._._._._._._._._._._._.
 72
   65
 73
    4
 40
12.7
 49
6.35
 74
    0
 49
-3.175
 74
    0
 49
0
 74
    0
 49
-3.175
 74
    0
  0
LTYPE
  5
3D
330
5
100
AcDbSymbolTableRecord
100
AcDbLinetypeTableRecord
  2
DASHDOTX2
 70
    0
  3
Dash dot (2x) ____  .  ____  .  ____  .  ___
 72
   65
 73
    4
 40
50.8
 49
25.4
 74
    0
 49
-12.7
 74
    0
 49
0
 74
    0
 49
-12.7
 74
    0
  0
LTYPE
  5
3E
330
5
100
AcDbSymbolTableRecord
100
AcDbLinetypeTableRecord
  2
DIVIDE
 70
    0
  3
Divide ____ . . ____ . . ____ . . ____ . . ____
 72
   65
 73
    6
 40
31.75
 49
12.7
 74
    0
 49
-6.35
 74
    0
 49
0
 74
    0
 49
-6.35
 74
    0
 49
0
 74
    0
 49
-6.35
 74
    0
  0
LTYPE
  5
3F
330
5
100
AcDbSymbolTableRecord
100
AcDbLinetypeTableRecord
  2
DIVIDETINY
 70
    0
  3
Divide (.15x) __..__..__..__..__..__..__..__.._
 72
   65
 73
    6
 40
4.7625
 49
1.905
 74
    0
 49
-0.9525
 74
    0
 49
0
 74
    0
 49
-0.9525
 74
    0
 49
0
 74
    0
 49
-0.9525
 74
    0
  0
LTYPE
  5
40
330
5
100
AcDbSymbolTableRecord
100
AcDbLinetypeTableRecord
  2
DIVIDE2
 70
    0
  3
Divide (.5x) __..__..__..__..__..__..__..__.._
 72
   65
 73
    6
 40
15.875
 49
6.35
 74
    0
 49
-3.175
 74
    0
 49
0
 74
    0
 49
-3.175
 74
    0
 49
0
 74
    0
 49
-3.175
 74
    0
  0
LTYPE
  5
41
330
5
100
AcDbSymbolTableRecord
100
AcDbLinetypeTableRecord
  2
DIVIDEX2
 70
    0
  3
Divide (2x) ________  .  .  ________  .  .  _
 72
   65
 73
    6
 40
63.5
 49
25.4
 74
    0
 49
-12.7
 74
    0
 49
0
 74
    0
 49
-12.7
 74
    0
 49
0
 74
    0
 49
-12.7
 74
    0
  0
LTYPE
  5
42
330
5
100
AcDbSymbolTableRecord
100
AcDbLinetypeTableRecord
  2
BORDER
 70
    0
  3
Border __ __ . __ __ . __ __ . __ __ . __ __ .
 72
   65
 73
    6
 40
44.45
 49
12.7
 74
    0
 49
-6.35
 74
    0
 49
12.7
 74
    0
 49
-6.35
 74
    0
 49
0
 74
    0
 49
-6.35
 74
    0
  0
LTYPE
  5
43
330
5
100
AcDbSymbolTableRecord
100
AcDbLinetypeTableRecord
  2
BORDERTINY
 70
    0
  3
Border (.15x) __.__.__.__.__.__.__.__.__.__.__.
 72
   65
 73
    6
 40
6.6675
 49
1.905
 74
    0
 49
-0.9525
 74
    0
 49
1.905
 74
    0
 49
-0.9525
 74
    0
 49
0
 74
    0
 49
-0.9525
 74
    0
  0
LTYPE
  5
44
330
5
100
AcDbSymbolTableRecord
100
AcDbLinetypeTableRecord
  2
BORDER2
 70
    0
  3
Border (.5x) __.__.__.__.__.__.__.__.__.__.__.
 72
   65
 73
    6
 40
22.225
 49
6.35
 74
    0
 49
-3.175
 74
    0
 49
6.35
 74
    0
 49
-3.175
 74
    0
 49
0
 74
    0
 49
-3.175
 74
    0
  0
LTYPE
  5
45
330
5
100
AcDbSymbolTableRecord
100
AcDbLinetypeTableRecord
  2
BORDERX2
 70
    0
  3
Border (2x) ____  ____  .  ____  ____  .  ___
 72
   65
 73
    6
 40
88.89999999999999
 49
25.4
 74
    0
 49
-12.7
 74
    0
 49
25.4
 74
    0
 49
-12.7
 74
    0
 49
0
 74
    0
 49
-12.7
 74
    0
  0
LTYPE
  5
46
330
5
100
AcDbSymbolTableRecord
100
AcDbLinetypeTableRecord
  2
CENTER
 70
    0
  3
Center ____ _ ____ _ ____ _ ____ _ ____ _ ____
 72
   65
 73
    4
 40
50.8
 49
31.75
 74
    0
 49
-6.35
 74
    0
 49
6.35
 74
    0
 49
-6.35
 74
    0
  0
LTYPE
  5
47
330
5
100
AcDbSymbolTableRecord
100
AcDbLinetypeTableRecord
  2
CENTERTINY
 70
    0
  3
Center (.15x) ___ _ ___ _ ___ _ ___ _ ___ _ ___
 72
   65
 73
    4
 40
7.619999999999999
 49
4.7625
 74
    0
 49
-0.9525
 74
    0
 49
0.9525
 74
    0
 49
-0.9525
 74
    0
  0
LTYPE
  5
48
330
5
100
AcDbSymbolTableRecord
100
AcDbLinetypeTableRecord
  2
CENTER2
 70
    0
  3
Center (.5x) ___ _ ___ _ ___ _ ___ _ ___ _ ___
 72
   65
 73
    4
 40
28.575
 49
19.05
 74
    0
 49
-3.175
 74
    0
 49
3.175
 74
    0
 49
-3.175
 74
    0
  0
LTYPE
  5
49
330
5
100
AcDbSymbolTableRecord
100
AcDbLinetypeTableRecord
  2
CENTERX2
 70
    0
  3
Center (2x) ________  __  ________  __  _____
 72
   65
 73
    4
 40
101.6
 49
63.5
 74
    0
 49
-12.7
 74
    0
 49
12.7
 74
    0
 49
-12.7
 74
    0
  0
ENDTAB
  0
TABLE
  2
LAYER
  5
2
330
0
100
AcDbSymbolTable
 70
    1
  0
LAYER
  5
10
330
2
100
AcDbSymbolTableRecord
100
AcDbLayerTableRecord
  2
0
 70
    0
 62
    7
  6
CONTINUOUS
370
   -3
390
F
  0
LAYER
  5
4A
330
2
100
AcDbSymbolTableRecord
100
AcDbLayerTableRecord
  2
A-DOOR
 70
    0
 62
    1
  6
CONTINUOUS
370
   15
390
F
  0
LAYER
  5
4B
330
2
100
AcDbSymbolTableRecord
100
AcDbLayerTableRecord
  2
A-WALL
 70
    0
 62
    7
  6
CONTINUOUS
370
   40
390
F
  0
LAYER
  5
4C
330
2
100
AcDbSymbolTableRecord
100
AcDbLayerTableRecord
  2
A-WINDOW
 70
    0
 62
  116
  6
CONTINUOUS
370
   20
390
F
  0
ENDTAB
  0
TABLE
  2
STYLE
  5
3
330
0
100
AcDbSymbolTable
 70
    3
  0
STYLE
  5
4D
330
2
100
AcDbSymbolTableRecord
100
AcDbTextStyleTableRecord
  2
STANDARD
 70
    0
 40
0
 41
1
 50
0
 71
    0
 42
1
  3
STANDARD
  4

  0
ENDTAB
  0
TABLE
  2
VIEW
  5
6
330
0
100
AcDbSymbolTable
 70
    0
  0
ENDTAB
  0
TABLE
  2
UCS
  5
7
330
0
100
AcDbSymbolTable
 70
    0
  0
ENDTAB
  0
TABLE
  2
APPID
  5
9
330
0
100
AcDbSymbolTable
 70
    1
  0
APPID
  5
12
330
9
100
AcDbSymbolTableRecord
100
AcDbRegAppTableRecord
  2
ACAD
 70
    0
  0
APPID
  5
4E
330
9
100
AcDbSymbolTableRecord
100
AcDbRegAppTableRecord
  2
LibreCad
 70
    0
  0
ENDTAB
  0
TABLE
  2
DIMSTYLE
  5
A
330
0
100
AcDbSymbolTable
 70
    1
100
AcDbDimStyleTable
 71
    1
  0
DIMSTYLE
105
4F
330
A
100
AcDbSymbolTableRecord
100
AcDbDimStyleTableRecord
  2
Standard
 70
    0
 40
1
 41
3
 42
4
 43
0.38
 44
3
 45
0
 46
0
 47
0
 48
0
 49
1
140
6
141
0.09
142
0
143
25.4
144
1
145
0
146
1
147
1
148
0
 71
    0
 72
    0
 73
    0
 74
    1
 75
    0
 76
    0
 77
    0
 78
    3
 79
    0
170
    0
171
    2
172
    0
173
    0
174
    0
175
    0
176
  256
177
  256
178
    7
179
    0
271
    3
272
    4
273
    2
274
    2
275
    0
276
    0
277
    4
278
   46
279
    0
280
    0
281
    0
282
    0
283
    1
284
    0
285
    0
286
    0
288
    0
289
    3
  0
ENDTAB
  0
TABLE
  2
BLOCK_RECORD
  5
1
330
0
100
AcDbSymbolTable
 70
    2
  0
BLOCK_RECORD
  5
1F
330
1
100
AcDbSymbolTableRecord
100
AcDbBlockTableRecord
  2
*Model_Space
 70
    0
280
    1
281
    0
  0
BLOCK_RECORD
  5
1E
330
1
100
AcDbSymbolTableRecord
100
AcDbBlockTableRecord
  2
*Paper_Space
 70
    0
280
    1
281
    0
  0
BLOCK_RECORD
  5
50
330
1
100
AcDbSymbolTableRecord
100
AcDbBlockTableRecord
  2
BLOCK-DOOR-0
 70
    0
280
    1
281
    0
  0
ENDTAB
  0
ENDSEC
  0
SECTION
  2
BLOCKS
  0
BLOCK
  5
20
330
1F
100
AcDbEntity
  8
0
100
AcDbBlockBegin
  2
*Model_Space
 70
    0
 10
0
 20
0
 30
0
  3
*Model_Space
  1

  0
ENDBLK
  5
21
330
1F
100
AcDbEntity
  8
0
100
AcDbBlockEnd
  0
BLOCK
  5
1C
330
1B
100
AcDbEntity
  8
0
100
AcDbBlockBegin
  2
*Paper_Space
 70
    0
 10
0
 20
0
 30
0
  3
*Paper_Space
  1

  0
ENDBLK
  5
1D
330
1F
100
AcDbEntity
  8
0
100
AcDbBlockEnd
  0
BLOCK
  5
51
330
50
100
AcDbEntity
  8
0
100
AcDbBlockBegin
  2
BLOCK-DOOR-0
 70
    0
 10
0
 20
0
  3
BLOCK-DOOR-0
  1

  0
LWPOLYLINE
  5
53
100
AcDbEntity
  8
A-DOOR
  6
ByLayer
 62
  256
370
   -1
100
AcDbPolyline
 90
    7
 70
    0
 43
0
 10
2
 20
5
 10
2
 20
3.5
 10
2.5
 20
3.5
 10
2.5
 20
0
 10
0
 20
0
 10
0
 20
5
 10
2
 20
5
  0
LWPOLYLINE
  5
54
100
AcDbEntity
  8
A-DOOR
  6
ByLayer
 62
  256
370
   -1
100
AcDbPolyline
 90
    7
 70
    0
 43
0
 10
38
 20
5
 10
38
 20
3.5
 10
37.5
 20
3.5
 10
37.5
 20
0
 10
40
 20
0
 10
40
 20
5
 10
38
 20
5
  0
LINE
  5
55
100
AcDbEntity
  8
A-DOOR
  6
ByLayer
 62
  256
370
   -1
100
AcDbLine
 10
2
 20
5
 11
2
 21
40.99999999999977
  0
LINE
  5
56
100
AcDbEntity
  8
A-DOOR
  6
ByLayer
 62
  256
370
   -1
100
AcDbLine
 10
3.5
 20
5
 11
3.500000000003638
 21
40.96873642484502
  0
LINE
  5
57
100
AcDbEntity
  8
A-DOOR
  6
ByLayer
 62
  256
370
   -1
100
AcDbLine
 10
2
 20
5
 11
3.5
 21
5
  0
ARC
  5
58
100
AcDbEntity
  8
A-DOOR
  6
ByLayer
 62
  256
370
   -1
100
AcDbCircle
 10
2
 20
5
 40
36
100
AcDbArc
 50
0
 51
90
  0
ENDBLK
  5
52
330
50
100
AcDbEntity
  8
0
100
AcDbBlockEnd
  0
ENDSEC
  0
SECTION
  2
ENTITIES
  0
LINE
  5
59
100
AcDbEntity
  8
A-WALL
  6
ByLayer
 62
  256
370
    0
100
AcDbLine
 10
36522.31314333928
 20
-642.9395204819273
 11
36522.31314333928
 21
-690.939520481927
  0
LINE
  5
5A
100
AcDbEntity
  8
A-WALL
  6
ByLayer
 62
  256
370
    0
100
AcDbLine
 10
36666.31314333927
 20
-695.9395204819268
 11
36666.31314333927
 21
-700.939520481923
  0
LINE
  5
5B
100
AcDbEntity
  8
A-WALL
  6
ByLayer
 62
  256
370
    0
100
AcDbLine
 10
36666.31314333927
 20
-742.0823776247853
 11
36666.31314333927
 21
-827.939520481927
  0
LINE
  5
5C
100
AcDbEntity
  8
A-WALL
  6
ByLayer
 62
  256
370
    0
100
AcDbLine
 10
36671.31314333927
 20
-690.9395204819268
 11
36671.31314333927
 21
-700.9395204819266
  0
LINE
  5
5D
100
AcDbEntity
  8
A-WALL
  6
ByLayer
 62
  256
370
    0
100
AcDbLine
 10
36671.31314333927
 20
-742.0823776247853
 11
36671.31314333927
 21
-762.939520481928
  0
LINE
  5
5E
100
AcDbEntity
  8
A-WALL
  6
ByLayer
 62
  256
370
    0
100
AcDbLine
 10
36671.31314333927
 20
-767.939520481928
 11
36671.31314333927
 21
-832.9395204819273
  0
LINE
  5
5F
100
AcDbEntity
  8
A-WALL
  6
ByLayer
 62
  256
370
    0
100
AcDbLine
 10
36618.31314333927
 20
-690.939520481927
 11
36618.31314333927
 21
-685.939520481927
  0
LINE
  5
60
100
AcDbEntity
  8
A-WALL
  6
ByLayer
 62
  256
370
    0
100
AcDbLine
 10
36618.31314333927
 20
-655.0823776247887
 11
36618.31314333927
 21
-642.9395204819273
  0
LINE
  5
61
100
AcDbEntity
  8
A-WALL
  6
ByLayer
 62
  256
370
    0
100
AcDbLine
 10
36623.31314333927
 20
-690.9395204819268
 11
36623.31314333927
 21
-685.939520481927
  0
LINE
  5
62
100
AcDbEntity
  8
A-WALL
  6
ByLayer
 62
  256
370
    0
100
AcDbLine
 10
36623.31314333927
 20
-655.0823776247887
 11
36623.31314333927
 21
-642.9395204819273
  0
LINE
  5
63
100
AcDbEntity
  8
A-WALL
  6
ByLayer
 62
  256
370
    0
100
AcDbLine
 10
36666.31314333927
 20
-548.9395204819273
 11
36666.31314333927
 21
-428.9395204819273
  0
LINE
  5
64
100
AcDbEntity
  8
A-WALL
  6
ByLayer
 62
  256
370
    0
100
AcDbLine
 10
36671.31314333927
 20
-548.9395204819273
 11
36671.31314333927
 21
-428.9395204819273
  0
LINE
  5
65
100
AcDbEntity
  8
A-WALL
  6
ByLayer
 62
  256
370
    0
100
AcDbLine
 10
36771.31314333928
 20
-548.9395204819273
 11
36771.31314333927
 21
-428.9395204819277
  0
LINE
  5
66
100
AcDbEntity
  8
A-WALL
  6
ByLayer
 62
  256
370
    0
100
AcDbLine
 10
36776.31314333928
 20
-548.9395204819273
 11
36776.31314333927
 21
-428.9395204819277
  0
LINE
  5
67
100
AcDbEntity
  8
A-WALL
  6
ByLayer
 62
  256
370
    0
100
AcDbLine
 10
36920.31314333927
 20
-642.939520481927
 11
36920.31314333928
 21
-690.9395204819275
  0
LINE
  5
68
100
AcDbEntity
  8
A-WALL
  6
ByLayer
 62
  256
370
    0
100
AcDbLine
 10
36836.31314333927
 20
-553.939520481927
 11
36836.31314333927
 21
-602.0823776247889
  0
LINE
  5
69
100
AcDbEntity
  8
A-WALL
  6
ByLayer
 62
  256
370
    0
100
AcDbLine
 10
36836.31314333927
 20
-632.939520481927
 11
36836.31314333927
 21
-637.9395204819273
  0
LINE
  5
6A
100
AcDbEntity
  8
A-WALL
  6
ByLayer
 62
  256
370
    0
100
AcDbLine
 10
36836.31314333927
 20
-642.9395204819273
 11
36836.31314333927
 21
-655.0823776247887
  0
LINE
  5
6B
100
AcDbEntity
  8
A-WALL
  6
ByLayer
 62
  256
370
    0
100
AcDbLine
 10
36836.31314333927
 20
-685.9395204819273
 11
36836.31314333927
 21
-690.9395204819273
  0
LINE
  5
6C
100
AcDbEntity
  8
A-WALL
  6
ByLayer
 62
  256
370
    0
100
AcDbLine
 10
36831.31314333927
 20
-553.939520481927
 11
36831.31314333928
 21
-602.0823776247889
  0
LINE
  5
6D
100
AcDbEntity
  8
A-WALL
  6
ByLayer
 62
  256
370
    0
100
AcDbLine
 10
36831.31314333927
 20
-632.939520481927
 11
36831.31314333927
 21
-655.0823776247887
  0
LINE
  5
6E
100
AcDbEntity
  8
A-WALL
  6
ByLayer
 62
  256
370
    0
100
AcDbLine
 10
36831.31314333927
 20
-685.9395204819273
 11
36831.31314333927
 21
-690.9395204819273
  0
LINE
  5
6F
100
AcDbEntity
  8
A-WALL
  6
ByLayer
 62
  256
370
    0
100
AcDbLine
 10
36776.31314333927
 20
-695.9395204819273
 11
36776.31314333927
 21
-827.9395204819273
  0
LINE
  5
70
100
AcDbEntity
  8
A-WALL
  6
ByLayer
 62
  256
370
    0
100
AcDbLine
 10
36781.31314333927
 20
-690.9395204819273
 11
36781.31314333927
 21
-695.9395204819273
  0
LINE
  5
71
100
AcDbEntity
  8
A-WALL
  6
ByLayer
 62
  256
370
    0
100
AcDbLine
 10
36771.31314333927
 20
-690.9395204819273
 11
36771.31314333927
 21
-762.9395204819275
  0
LINE
  5
72
100
AcDbEntity
  8
A-WALL
  6
ByLayer
 62
  256
370
    0
100
AcDbLine
 10
36771.31314333927
 20
-767.9395204819275
 11
36771.31314333927
 21
-832.9395204819273
  0
LINE
  5
73
100
AcDbEntity
  8
A-WALL
  6
ByLayer
 62
  256
370
    0
100
AcDbLine
 10
36671.31314333927
 20
-767.9395204819277
 11
36725.17028619641
 21
-767.9395204819275
  0
LINE
  5
74
100
AcDbEntity
  8
A-WALL
  6
ByLayer
 62
  256
370
    0
100
AcDbLine
 10
36766.31314333927
 20
-767.9395204819273
 11
36771.31314333927
 21
-767.9395204819273
  0
LINE
  5
75
100
AcDbEntity
  8
A-WALL
  6
ByLayer
 62
  256
370
    0
100
AcDbLine
 10
36671.31314333927
 20
-762.9395204819277
 11
36725.17028619641
 21
-762.9395204819275
  0
LINE
  5
76
100
AcDbEntity
  8
A-WALL
  6
ByLayer
 62
  256
370
    0
100
AcDbLine
 10
36766.31314333927
 20
-762.9395204819273
 11
36771.31314333927
 21
-762.9395204819273
  0
LINE
  5
77
100
AcDbEntity
  8
A-WALL
  6
ByLayer
 62
  256
370
    0
100
AcDbLine
 10
36776.31314333927
 20
-695.9395204819273
 11
36781.31314333927
 21
-695.9395204819273
  0
LINE
  5
78
100
AcDbEntity
  8
A-WALL
  6
ByLayer
 62
  256
370
    0
100
AcDbLine
 10
36822.45600048214
 20
-695.9395204819273
 11
36920.31314333928
 21
-695.9395204819275
  0
LINE
  5
79
100
AcDbEntity
  8
A-WALL
  6
ByLayer
 62
  256
370
    0
100
AcDbLine
 10
36771.31314333927
 20
-690.9395204819273
 11
36781.31314333927
 21
-690.9395204819273
  0
LINE
  5
7A
100
AcDbEntity
  8
A-WALL
  6
ByLayer
 62
  256
370
    0
100
AcDbLine
 10
36822.45600048214
 20
-690.9395204819273
 11
36831.31314333927
 21
-690.9395204819273
  0
LINE
  5
7B
100
AcDbEntity
  8
A-WALL
  6
ByLayer
 62
  256
370
    0
100
AcDbLine
 10
36836.31314333927
 20
-690.9395204819273
 11
36920.31314333927
 21
-690.9395204819273
  0
LINE
  5
7C
100
AcDbEntity
  8
A-WALL
  6
ByLayer
 62
  256
370
    0
100
AcDbLine
 10
36836.31314333927
 20
-642.9395204819273
 11
36920.31314333927
 21
-642.939520481927
  0
LINE
  5
7D
100
AcDbEntity
  8
A-WALL
  6
ByLayer
 62
  256
370
    0
100
AcDbLine
 10
36836.31314333927
 20
-637.9395204819273
 11
36920.31314333927
 21
-637.939520481927
  0
LINE
  5
7E
100
AcDbEntity
  8
A-WALL
  6
ByLayer
 62
  256
370
    0
100
AcDbLine
 10
36522.31314333928
 20
-695.939520481927
 11
36666.31314333927
 21
-695.9395204819268
  0
LINE
  5
7F
100
AcDbEntity
  8
A-WALL
  6
ByLayer
 62
  256
370
    0
100
AcDbLine
 10
36522.31314333928
 20
-690.939520481927
 11
36618.31314333927
 21
-690.939520481927
  0
LINE
  5
80
100
AcDbEntity
  8
A-WALL
  6
ByLayer
 62
  256
370
    0
100
AcDbLine
 10
36623.31314333927
 20
-690.9395204819266
 11
36671.31314333927
 21
-690.9395204819268
  0
LINE
  5
81
100
AcDbEntity
  8
A-WALL
  6
ByLayer
 62
  256
370
    0
100
AcDbLine
 10
36618.31314333927
 20
-685.939520481927
 11
36623.31314333927
 21
-685.939520481927
  0
LINE
  5
82
100
AcDbEntity
  8
A-WALL
  6
ByLayer
 62
  256
370
    0
100
AcDbLine
 10
36522.31314333927
 20
-642.9395204819273
 11
36618.31314333927
 21
-642.9395204819275
  0
LINE
  5
83
100
AcDbEntity
  8
A-WALL
  6
ByLayer
 62
  256
370
    0
100
AcDbLine
 10
36623.31314333927
 20
-642.9395204819275
 11
36653.31314333928
 21
-642.9395204819275
  0
LINE
  5
84
100
AcDbEntity
  8
A-WALL
  6
ByLayer
 62
  256
370
    0
100
AcDbLine
 10
36522.31314333927
 20
-637.9395204819273
 11
36653.31314333927
 21
-637.9395204819273
  0
LINE
  5
85
100
AcDbEntity
  8
A-WALL
  6
ByLayer
 62
  256
370
    0
100
AcDbLine
 10
36522.31314333927
 20
-553.939520481927
 11
36620.17028619641
 21
-553.9395204819275
  0
LINE
  5
86
100
AcDbEntity
  8
A-WALL
  6
ByLayer
 62
  256
370
    0
100
AcDbLine
 10
36661.31314333927
 20
-553.9395204819275
 11
36683.31314333927
 21
-553.9395204819273
  0
LINE
  5
87
100
AcDbEntity
  8
A-WALL
  6
ByLayer
 62
  256
370
    0
100
AcDbLine
 10
36759.31314333928
 20
-553.9395204819268
 11
36781.31314333927
 21
-553.9395204819273
  0
LINE
  5
88
100
AcDbEntity
  8
A-WALL
  6
ByLayer
 62
  256
370
    0
100
AcDbLine
 10
36822.45600048214
 20
-553.9395204819273
 11
36831.31314333927
 21
-553.939520481927
  0
LINE
  5
89
100
AcDbEntity
  8
A-WALL
  6
ByLayer
 62
  256
370
    0
100
AcDbLine
 10
36836.31314333927
 20
-553.939520481927
 11
36920.31314333927
 21
-553.939520481927
  0
LINE
  5
8A
100
AcDbEntity
  8
A-WALL
  6
ByLayer
 62
  256
370
    0
100
AcDbLine
 10
36522.31314333927
 20
-548.939520481927
 11
36620.17028619641
 21
-548.9395204819273
  0
LINE
  5
8B
100
AcDbEntity
  8
A-WALL
  6
ByLayer
 62
  256
370
    0
100
AcDbLine
 10
36661.31314333928
 20
-548.9395204819273
 11
36666.31314333927
 21
-548.939520481927
  0
LINE
  5
8C
100
AcDbEntity
  8
A-WALL
  6
ByLayer
 62
  256
370
    0
100
AcDbLine
 10
36671.31314333927
 20
-548.939520481927
 11
36683.31314333927
 21
-548.9395204819273
  0
LINE
  5
8D
100
AcDbEntity
  8
A-WALL
  6
ByLayer
 62
  256
370
    0
100
AcDbLine
 10
36759.31314333928
 20
-548.9395204819268
 11
36771.31314333928
 21
-548.939520481927
  0
LINE
  5
8E
100
AcDbEntity
  8
A-WALL
  6
ByLayer
 62
  256
370
    0
100
AcDbLine
 10
36776.31314333928
 20
-548.939520481927
 11
36781.31314333927
 21
-548.9395204819273
  0
LINE
  5
8F
100
AcDbEntity
  8
A-WALL
  6
ByLayer
 62
  256
370
    0
100
AcDbLine
 10
36822.45600048214
 20
-548.9395204819273
 11
36920.31314333927
 21
-548.939520481927
  0
INSERT
  5
90
100
AcDbEntity
  8
A-DOOR
  6
ByLayer
 62
  256
370
    0
100
AcDbBlockReference
  2
BLOCK-DOOR-0
 10
36781.31314333927
 20
-690.9395204819273
 30
0
 41
-1.028571428571428
 42
1.028571428571428
 43
0
 50
180
 70
    1
 71
    1
 44
0
 45
0
  0
LINE
  5
91
100
AcDbEntity
  8
A-WALL
  6
ByLayer
 62
  256
370
    0
100
AcDbLine
 10
36822.45600048214
 20
-690.9395204819273
 11
36822.45600048214
 21
-695.9395204819273
  0
LINE
  5
92
100
AcDbEntity
  8
A-WALL
  6
ByLayer
 62
  256
370
    0
100
AcDbLine
 10
36671.31314333927
 20
-700.9395204819268
 11
36666.31314333927
 21
-700.9395204819232
  0
INSERT
  5
93
100
AcDbEntity
  8
A-DOOR
  6
ByLayer
 62
  256
370
    0
100
AcDbBlockReference
  2
BLOCK-DOOR-0
 10
36671.31314333927
 20
-700.9395204819268
 30
0
 41
-1.028571428571428
 42
1.028571428571428
 43
0
 50
90
 70
    1
 71
    1
 44
0
 45
0
  0
LINE
  5
94
100
AcDbEntity
  8
A-WALL
  6
ByLayer
 62
  256
370
    0
100
AcDbLine
 10
36671.31314333927
 20
-742.0823776247855
 11
36666.31314333927
 21
-742.0823776247855
  0
LINE
  5
95
100
AcDbEntity
  8
A-WALL
  6
ByLayer
 62
  256
370
    0
100
AcDbLine
 10
36781.31314333927
 20
-553.9395204819273
 11
36781.31314333927
 21
-548.9395204819273
  0
INSERT
  5
96
100
AcDbEntity
  8
A-DOOR
  6
ByLayer
 62
  256
370
    0
100
AcDbBlockReference
  2
BLOCK-DOOR-0
 10
36781.31314333927
 20
-553.9395204819273
 30
0
 41
1.028571428571428
 42
1.028571428571428
 43
0
 50
0
 70
    1
 71
    1
 44
0
 45
0
  0
LINE
  5
97
100
AcDbEntity
  8
A-WALL
  6
ByLayer
 62
  256
370
    0
100
AcDbLine
 10
36822.45600048214
 20
-553.9395204819273
 11
36822.45600048214
 21
-548.9395204819273
  0
LINE
  5
98
100
AcDbEntity
  8
A-WALL
  6
ByLayer
 62
  256
370
    0
100
AcDbLine
 10
36661.31314333927
 20
-553.9395204819273
 11
36661.31314333928
 21
-548.9395204819273
  0
INSERT
  5
99
100
AcDbEntity
  8
A-DOOR
  6
ByLayer
 62
  256
370
    0
100
AcDbBlockReference
  2
BLOCK-DOOR-0
 10
36661.31314333927
 20
-553.9395204819273
 30
0
 41
-1.028571428571428
 42
1.028571428571428
 43
0
 50
0
 70
    1
 71
    1
 44
0
 45
0
  0
LINE
  5
9A
100
AcDbEntity
  8
A-WALL
  6
ByLayer
 62
  256
370
    0
100
AcDbLine
 10
36620.17028619641
 20
-553.9395204819273
 11
36620.17028619641
 21
-548.9395204819273
  0
LINE
  5
9B
100
AcDbEntity
  8
A-WALL
  6
ByLayer
 62
  256
370
    0
100
AcDbLine
 10
36683.31314333927
 20
-548.9395204819273
 11
36683.31314333927
 21
-553.9395204819275
  0
LINE
  5
9C
100
AcDbEntity
  8
A-WALL
  6
ByLayer
 62
  256
370
    0
100
AcDbLine
 10
36759.31314333928
 20
-548.9395204819268
 11
36759.31314333928
 21
-553.939520481927
  0
INSERT
  5
9D
100
AcDbEntity
  8
A-DOOR
  6
ByLayer
 62
  256
370
    0
100
AcDbBlockReference
  2
BLOCK-DOOR-0
 10
36623.31314333927
 20
-685.939520481927
 30
0
 41
0.7714285714284634
 42
0.7714285714284634
 43
0
 50
90
 70
    1
 71
    1
 44
0
 45
0
  0
LINE
  5
9E
100
AcDbEntity
  8
A-WALL
  6
ByLayer
 62
  256
370
    0
100
AcDbLine
 10
36623.31314333927
 20
-655.0823776247885
 11
36618.31314333928
 21
-655.0823776247885
  0
LINE
  5
9F
100
AcDbEntity
  8
A-WALL
  6
ByLayer
 62
  256
370
    0
100
AcDbLine
 10
36836.31314333928
 20
-685.9395204819273
 11
36831.31314333927
 21
-685.9395204819273
  0
INSERT
  5
A0
100
AcDbEntity
  8
A-DOOR
  6
ByLayer
 62
  256
370
    0
100
AcDbBlockReference
  2
BLOCK-DOOR-0
 10
36831.31314333927
 20
-685.9395204819273
 30
0
 41
-0.7714285714284634
 42
0.7714285714284634
 43
0
 50
270
 70
    1
 71
    1
 44
0
 45
0
  0
LINE
  5
A1
100
AcDbEntity
  8
A-WALL
  6
ByLayer
 62
  256
370
    0
100
AcDbLine
 10
36831.31314333927
 20
-655.0823776247887
 11
36836.31314333927
 21
-655.0823776247887
  0
LINE
  5
A2
100
AcDbEntity
  8
A-WALL
  6
ByLayer
 62
  256
370
    0
100
AcDbLine
 10
36836.31314333928
 20
-632.9395204819273
 11
36831.31314333927
 21
-632.9395204819273
  0
INSERT
  5
A3
100
AcDbEntity
  8
A-DOOR
  6
ByLayer
 62
  256
370
    0
100
AcDbBlockReference
  2
BLOCK-DOOR-0
 10
36831.31314333927
 20
-632.9395204819273
 30
0
 41
-0.7714285714284634
 42
0.7714285714284634
 43
0
 50
270
 70
    1
 71
    1
 44
0
 45
0
  0
LINE
  5
A4
100
AcDbEntity
  8
A-WALL
  6
ByLayer
 62
  256
370
    0
100
AcDbLine
 10
36831.31314333927
 20
-602.0823776247887
 11
36836.31314333927
 21
-602.0823776247887
  0
INSERT
  5
A5
100
AcDbEntity
  8
A-DOOR
  6
ByLayer
 62
  256
370
    0
100
AcDbBlockReference
  2
BLOCK-DOOR-0
 10
36766.31314333927
 20
-767.9395204819273
 30
0
 41
-1.028571428571428
 42
1.028571428571428
 43
0
 50
0
 70
    1
 71
    1
 44
0
 45
0
  0
LINE
  5
A6
100
AcDbEntity
  8
A-WALL
  6
ByLayer
 62
  256
370
    0
100
AcDbLine
 10
36766.31314333927
 20
-767.9395204819273
 11
36766.31314333927
 21
-762.9395204819273
  0
LINE
  5
A7
100
AcDbEntity
  8
A-WALL
  6
ByLayer
 62
  256
370
    0
100
AcDbLine
 10
36725.17028619641
 20
-767.9395204819273
 11
36725.17028619641
 21
-762.9395204819273
  0
LINE
  5
A8
100
AcDbEntity
  8
A-WINDOW
  6
DASHED
 62
  256
370
   -1
100
AcDbLine
 10
36629.31314333927
 20
-415.9395204819311
 11
36559.31314333927
 21
-415.9395204819239
  0
LINE
  5
A9
100
AcDbEntity
  8
A-WINDOW
  6
DASHED
 62
  256
370
   -1
100
AcDbLine
 10
36629.31314333927
 20
-423.9395204819311
 11
36629.31314333927
 21
-415.9395204819311
  0
LINE
  5
AA
100
AcDbEntity
  8
A-WINDOW
  6
DASHED
 62
  256
370
   -1
100
AcDbLine
 10
36559.31314333927
 20
-423.9395204819311
 11
36559.31314333927
 21
-415.9395204819239
  0
LINE
  5
AB
100
AcDbEntity
  8
A-WINDOW
  6
DASHED
 62
  256
370
   -1
100
AcDbLine
 10
36756.31314333927
 20
-415.9395204819311
 11
36686.31314333927
 21
-415.9395204819239
  0
LINE
  5
AC
100
AcDbEntity
  8
A-WINDOW
  6
DASHED
 62
  256
370
   -1
100
AcDbLine
 10
36756.31314333927
 20
-423.9395204819311
 11
36756.31314333927
 21
-415.9395204819311
  0
LINE
  5
AD
100
AcDbEntity
  8
A-WINDOW
  6
DASHED
 62
  256
370
   -1
100
AcDbLine
 10
36686.31314333927
 20
-423.9395204819311
 11
36686.31314333927
 21
-415.9395204819239
  0
LINE
  5
AE
100
AcDbEntity
  8
A-WINDOW
  6
DASHED
 62
  256
370
   -1
100
AcDbLine
 10
36883.31314333927
 20
-415.9395204819311
 11
36813.31314333927
 21
-415.9395204819239
  0
LINE
  5
AF
100
AcDbEntity
  8
A-WINDOW
  6
DASHED
 62
  256
370
   -1
100
AcDbLine
 10
36883.31314333927
 20
-423.9395204819311
 11
36883.31314333927
 21
-415.9395204819311
  0
LINE
  5
B0
100
AcDbEntity
  8
A-WINDOW
  6
DASHED
 62
  256
370
   -1
100
AcDbLine
 10
36813.31314333927
 20
-423.9395204819311
 11
36813.31314333927
 21
-415.9395204819239
  0
LINE
  5
B1
100
AcDbEntity
  8
A-WINDOW
  6
DASHED
 62
  256
370
   -1
100
AcDbLine
 10
36933.31314333927
 20
-523.939520481927
 11
36933.31314333928
 21
-453.9395204819198
  0
LINE
  5
B2
100
AcDbEntity
  8
A-WINDOW
  6
DASHED
 62
  256
370
   -1
100
AcDbLine
 10
36925.31314333927
 20
-523.939520481927
 11
36933.31314333927
 21
-523.939520481927
  0
LINE
  5
B3
100
AcDbEntity
  8
A-WINDOW
  6
DASHED
 62
  256
370
   -1
100
AcDbLine
 10
36925.31314333927
 20
-453.9395204819234
 11
36933.31314333928
 21
-453.9395204819198
  0
LINE
  5
B4
100
AcDbEntity
  8
A-WINDOW
  6
DASHED
 62
  256
370
   -1
100
AcDbLine
 10
36509.31314333928
 20
-453.9395204819273
 11
36509.31314333927
 21
-523.9395204819346
  0
LINE
  5
B5
100
AcDbEntity
  8
A-WINDOW
  6
DASHED
 62
  256
370
   -1
100
AcDbLine
 10
36517.31314333928
 20
-453.9395204819273
 11
36509.31314333928
 21
-453.9395204819273
  0
LINE
  5
B6
100
AcDbEntity
  8
A-WINDOW
  6
DASHED
 62
  256
370
   -1
100
AcDbLine
 10
36517.31314333928
 20
-523.9395204819309
 11
36509.31314333927
 21
-523.9395204819346
  0
LINE
  5
B7
100
AcDbEntity
  8
A-WINDOW
  6
DASHED
 62
  256
370
   -1
100
AcDbLine
 10
36883.31314333927
 20
-840.9395204819209
 11
36813.31314333927
 21
-840.9395204819282
  0
LINE
  5
B8
100
AcDbEntity
  8
A-WINDOW
  6
DASHED
 62
  256
370
   -1
100
AcDbLine
 10
36883.31314333927
 20
-832.9395204819209
 11
36883.31314333927
 21
-840.9395204819209
  0
LINE
  5
B9
100
AcDbEntity
  8
A-WINDOW
  6
DASHED
 62
  256
370
   -1
100
AcDbLine
 10
36813.31314333927
 20
-832.9395204819209
 11
36813.31314333927
 21
-840.9395204819282
  0
LINE
  5
BA
100
AcDbEntity
  8
A-WINDOW
  6
DASHED
 62
  256
370
   -1
100
AcDbLine
 10
36629.31314333927
 20
-840.9395204819205
 11
36559.31314333927
 21
-840.9395204819277
  0
LINE
  5
BB
100
AcDbEntity
  8
A-WINDOW
  6
DASHED
 62
  256
370
   -1
100
AcDbLine
 10
36629.31314333927
 20
-832.9395204819205
 11
36629.31314333927
 21
-840.9395204819205
  0
LINE
  5
BC
100
AcDbEntity
  8
A-WINDOW
  6
DASHED
 62
  256
370
   -1
100
AcDbLine
 10
36559.31314333927
 20
-832.9395204819205
 11
36559.31314333927
 21
-840.9395204819277
  0
LINE
  5
BD
100
AcDbEntity
  8
A-WINDOW
  6
DASHED
 62
  256
370
   -1
100
AcDbLine
 10
36509.31314333928
 20
-560.939520481927
 11
36509.31314333927
 21
-630.9395204819343
  0
LINE
  5
BE
100
AcDbEntity
  8
A-WINDOW
  6
DASHED
 62
  256
370
   -1
100
AcDbLine
 10
36517.31314333928
 20
-560.939520481927
 11
36509.31314333928
 21
-560.939520481927
  0
LINE
  5
BF
100
AcDbEntity
  8
A-WINDOW
  6
DASHED
 62
  256
370
   -1
100
AcDbLine
 10
36517.31314333928
 20
-630.9395204819307
 11
36509.31314333927
 21
-630.9395204819343
  0
LINE
  5
C0
100
AcDbEntity
  8
A-WINDOW
  6
DASHED
 62
  256
370
   -1
100
AcDbLine
 10
36509.31314333928
 20
-726.9395204819273
 11
36509.31314333927
 21
-796.9395204819346
  0
LINE
  5
C1
100
AcDbEntity
  8
A-WINDOW
  6
DASHED
 62
  256
370
   -1
100
AcDbLine
 10
36517.31314333928
 20
-726.9395204819273
 11
36509.31314333928
 21
-726.9395204819273
  0
LINE
  5
C2
100
AcDbEntity
  8
A-WINDOW
  6
DASHED
 62
  256
370
   -1
100
AcDbLine
 10
36517.31314333928
 20
-796.9395204819309
 11
36509.31314333927
 21
-796.9395204819346
  0
LINE
  5
C3
100
AcDbEntity
  8
A-WINDOW
  6
DASHED
 62
  256
370
   -1
100
AcDbLine
 10
36933.31314333927
 20
-630.939520481927
 11
36933.31314333928
 21
-560.9395204819198
  0
LINE
  5
C4
100
AcDbEntity
  8
A-WINDOW
  6
DASHED
 62
  256
370
   -1
100
AcDbLine
 10
36925.31314333927
 20
-630.939520481927
 11
36933.31314333927
 21
-630.939520481927
  0
LINE
  5
C5
100
AcDbEntity
  8
A-WINDOW
  6
DASHED
 62
  256
370
   -1
100
AcDbLine
 10
36925.31314333927
 20
-560.9395204819234
 11
36933.31314333928
 21
-560.9395204819198
  0
LINE
  5
C6
100
AcDbEntity
  8
A-WINDOW
  6
DASHED
 62
  256
370
   -1
100
AcDbLine
 10
36933.31314333927
 20
-796.9395204819277
 11
36933.31314333928
 21
-726.9395204819205
  0
LINE
  5
C7
100
AcDbEntity
  8
A-WINDOW
  6
DASHED
 62
  256
370
   -1
100
AcDbLine
 10
36925.31314333927
 20
-796.9395204819277
 11
36933.31314333927
 21
-796.9395204819277
  0
LINE
  5
C8
100
AcDbEntity
  8
A-WINDOW
  6
DASHED
 62
  256
370
   -1
100
AcDbLine
 10
36925.31314333927
 20
-726.9395204819241
 11
36933.31314333928
 21
-726.9395204819205
  0
LINE
  5
C9
100
AcDbEntity
  8
A-WALL
  6
ByLayer
 62
  256
370
    0
100
AcDbLine
 10
36653.31314333927
 20
-637.9395204819309
 11
36653.31314333927
 21
-642.9395204819275
  0
LINE
  5
CA
100
AcDbEntity
  8
A-WALL
  6
CONTINUOUS
 62
    7
370
    0
100
AcDbLine
 10
36517.31314333928
 20
-796.9395204819309
 11
36517.31314333927
 21
-832.9395204819273
  0
LINE
  5
CB
100
AcDbEntity
  8
A-WALL
  6
CONTINUOUS
 62
  256
370
   -3
100
AcDbLine
 10
36517.3
 20
-796.938
 11
36522.5
 21
-797
  0
LINE
  5
CC
100
AcDbEntity
  8
A-WALL
  6
CONTINUOUS
 62
  256
370
   -3
100
AcDbLine
 10
36522.5
 20
-797
 11
36522.3
 21
-827.9400000000001
  0
LINE
  5
CD
100
AcDbEntity
  8
A-WALL
  6
CONTINUOUS
 62
    7
370
    0
100
AcDbLine
 10
36522.31314333928
 20
-695.9395204819273
 11
36522
 21
-727
  0
LINE
  5
CE
100
AcDbEntity
  8
A-WALL
  6
CONTINUOUS
 62
  256
370
   -3
100
AcDbLine
 10
36517.3
 20
-726.9400000000001
 11
36522
 21
-727
  0
LINE
  5
CF
100
AcDbEntity
  8
A-WALL
  6
CONTINUOUS
 62
  256
370
   -3
100
AcDbLine
 10
36559.3
 20
-832.9400000000001
 11
36559.3
 21
-827.938
  0
LINE
  5
D0
100
AcDbEntity
  8
A-WALL
  6
CONTINUOUS
 62
  256
370
   -3
100
AcDbLine
 10
36522.3
 20
-827.9400000000001
 11
36559.3
 21
-827.938
  0
LINE
  5
D1
100
AcDbEntity
  8
A-WALL
  6
CONTINUOUS
 62
  256
370
   -3
100
AcDbLine
 10
36629.3
 20
-832.9400000000001
 11
36629.3125
 21
-828
  0
LINE
  5
D2
100
AcDbEntity
  8
A-WALL
  6
CONTINUOUS
 62
  256
370
   -3
100
AcDbLine
 10
36629.3125
 20
-828
 11
36666.3
 21
-827.9400000000001
  0
LINE
  5
D3
100
AcDbEntity
  8
A-WALL
  6
CONTINUOUS
 62
  256
370
   -3
100
AcDbLine
 10
36629.3
 20
-832.9400000000001
 11
36671.3
 21
-832.9400000000001
  0
LINE
  5
D4
100
AcDbEntity
  8
A-WALL
  6
CONTINUOUS
 62
  256
370
   -3
100
AcDbLine
 10
36517.3
 20
-832.9400000000001
 11
36559.3
 21
-832.9400000000001
  0
LINE
  5
D5
100
AcDbEntity
  8
A-WALL
  6
CONTINUOUS
 62
  256
370
   -3
100
AcDbLine
 10
36517.3
 20
-524.063
 11
36522.3125
 21
-524.0625
  0
LINE
  5
D6
100
AcDbEntity
  8
A-WALL
  6
CONTINUOUS
 62
  256
370
   -3
100
AcDbLine
 10
36517.3
 20
-453.94
 11
36522.314453125
 21
-453.939453125
  0
LINE
  5
D7
100
AcDbEntity
  8
A-WALL
  6
CONTINUOUS
 62
  256
370
   -3
100
AcDbLine
 10
36517.3
 20
-423.94
 11
36517.3
 21
-453.94
  0
LINE
  5
D8
100
AcDbEntity
  8
A-WALL
  6
CONTINUOUS
 62
  256
370
   -3
100
AcDbLine
 10
36522.3
 20
-428.94
 11
36522.3
 21
-453.939
  0
LINE
  5
D9
100
AcDbEntity
  8
A-WALL
  6
CONTINUOUS
 62
  256
370
   -3
100
AcDbLine
 10
36522.3
 20
-524.063
 11
36522.3
 21
-548.9400000000001
  0
LINE
  5
DA
100
AcDbEntity
  8
A-WALL
  6
CONTINUOUS
 62
    7
370
    0
100
AcDbLine
 10
36517.3
 20
-631.188
 11
36517.31314333928
 21
-726.9395204819273
  0
LINE
  5
DB
100
AcDbEntity
  8
A-WALL
  6
CONTINUOUS
 62
  256
370
   -3
100
AcDbLine
 10
36517.3
 20
-631.188
 11
36522.3125
 21
-631.1875
  0
LINE
  5
DC
100
AcDbEntity
  8
A-WALL
  6
CONTINUOUS
 62
  256
370
   -3
100
AcDbLine
 10
36517.5
 20
-560
 11
36522.3125
 21
-560
  0
LINE
  5
DD
100
AcDbEntity
  8
A-WALL
  6
CONTINUOUS
 62
  256
370
   -3
100
AcDbLine
 10
36517.3
 20
-524.063
 11
36517.5
 21
-560
  0
LINE
  5
DE
100
AcDbEntity
  8
A-WALL
  6
CONTINUOUS
 62
  256
370
   -3
100
AcDbLine
 10
36522.3
 20
-553.9400000000001
 11
36522.3
 21
-560
  0
LINE
  5
DF
100
AcDbEntity
  8
A-WALL
  6
CONTINUOUS
 62
  256
370
   -3
100
AcDbLine
 10
36522.3
 20
-631.188
 11
36522.3
 21
-637.9400000000001
  0
LINE
  5
E0
100
AcDbEntity
  8
A-WALL
  6
CONTINUOUS
 62
  256
370
   -3
100
AcDbLine
 10
36813.3
 20
-832.9400000000001
 11
36813.296875
 21
-827.9375
  0
LINE
  5
E1
100
AcDbEntity
  8
A-WALL
  6
CONTINUOUS
 62
  256
370
   -3
100
AcDbLine
 10
36883.3
 20
-832.9400000000001
 11
36883.3125
 21
-827.9375
  0
LINE
  5
E2
100
AcDbEntity
  8
A-WALL
  6
CONTINUOUS
 62
  256
370
   -3
100
AcDbLine
 10
36883.3
 20
-827.938
 11
36920.3
 21
-827.9400000000001
  0
LINE
  5
E3
100
AcDbEntity
  8
A-WALL
  6
CONTINUOUS
 62
  256
370
   -3
100
AcDbLine
 10
36776.3
 20
-827.9400000000001
 11
36813.3
 21
-827.938
  0
LINE
  5
E4
100
AcDbEntity
  8
A-WALL
  6
CONTINUOUS
 62
  256
370
   -3
100
AcDbLine
 10
36771.3
 20
-832.9400000000001
 11
36813.3
 21
-832.9400000000001
  0
LINE
  5
E5
100
AcDbEntity
  8
A-WALL
  6
CONTINUOUS
 62
  256
370
   -3
100
AcDbLine
 10
36883.3
 20
-832.9400000000001
 11
36925.3
 21
-832.9400000000001
  0
LINE
  5
E6
100
AcDbEntity
  8
A-WALL
  6
CONTINUOUS
 62
  256
370
   -3
100
AcDbLine
 10
36920.3
 20
-726.9400000000001
 11
36925.3
 21
-726.9400000000001
  0
LINE
  5
E7
100
AcDbEntity
  8
A-WALL
  6
CONTINUOUS
 62
  256
370
   -3
100
AcDbLine
 10
36920.3
 20
-796.95
 11
36925.3
 21
-796.9400000000001
  0
LINE
  5
E8
100
AcDbEntity
  8
A-WALL
  6
CONTINUOUS
 62
  256
370
   -3
100
AcDbLine
 10
36925.3
 20
-796.9400000000001
 11
36925.3
 21
-832.9400000000001
  0
LINE
  5
E9
100
AcDbEntity
  8
A-WALL
  6
CONTINUOUS
 62
  256
370
   -3
100
AcDbLine
 10
36920.3
 20
-630.937
 11
36925.31314333927
 21
-630.939520481927
  0
LINE
  5
EA
100
AcDbEntity
  8
A-WALL
  6
CONTINUOUS
 62
  256
370
   -3
100
AcDbLine
 10
36925.3
 20
-630.9400000000001
 11
36925.3
 21
-726.9400000000001
  0
LINE
  5
EB
100
AcDbEntity
  8
A-WALL
  6
CONTINUOUS
 62
  256
370
   -3
100
AcDbLine
 10
36920.3
 20
-560.949
 11
36925.31314333927
 21
-560.9395204819234
  0
LINE
  5
EC
100
AcDbEntity
  8
A-WALL
  6
CONTINUOUS
 62
  256
370
   -3
100
AcDbLine
 10
36920.3
 20
-553.9400000000001
 11
36920.3
 21
-560.949
  0
LINE
  5
ED
100
AcDbEntity
  8
A-WALL
  6
CONTINUOUS
 62
  256
370
   -3
100
AcDbLine
 10
36920.3
 20
-630.937
 11
36920.3
 21
-637.9400000000001
  0
LINE
  5
EE
100
AcDbEntity
  8
A-WALL
  6
ByLayer
 62
  256
370
   -3
100
AcDbLine
 10
36925.31314333927
 20
-523.939520481927
 11
36925.31314333927
 21
-560.9395204819234
  0
LINE
  5
EF
100
AcDbEntity
  8
A-WALL
  6
ByLayer
 62
  256
370
   -3
100
AcDbLine
 10
36920.31314333927
 20
-453.8795058326209
 11
36925.31314333927
 21
-453.9395204819234
  0
LINE
  5
F0
100
AcDbEntity
  8
A-WALL
  6
ByLayer
 62
  256
370
   -3
100
AcDbLine
 10
36925.31314333927
 20
-423.9395204819273
 11
36925.31314333927
 21
-453.9395204819234
  0
LINE
  5
F1
100
AcDbEntity
  8
A-WALL
  6
ByLayer
 62
  256
370
   -3
100
AcDbLine
 10
36920.31314333927
 20
-428.9395204819273
 11
36920.31314333927
 21
-453.8795058326209
  0
LINE
  5
F2
100
AcDbEntity
  8
A-WALL
  6
ByLayer
 62
  256
370
   -3
100
AcDbLine
 10
36920.31314333927
 20
-523.9180152160918
 11
36925.31314333927
 21
-523.939520481927
  0
LINE
  5
F3
100
AcDbEntity
  8
A-WALL
  6
ByLayer
 62
  256
370
   -3
100
AcDbLine
 10
36920.31314333927
 20
-523.9180152160918
 11
36920.31314333927
 21
-548.939520481927
  0
LINE
  5
F4
100
AcDbEntity
  8
A-WALL
  6
ByLayer
 62
  256
370
   -3
100
AcDbLine
 10
36920.31314333928
 20
-695.9395204819275
 11
36920.3
 21
-726.9400000000001
  0
LINE
  5
F5
100
AcDbEntity
  8
A-WALL
  6
ByLayer
 62
  256
370
   -3
100
AcDbLine
 10
36920.3
 20
-796.95
 11
36920.3
 21
-827.9400000000001
  0
LINE
  5
F6
100
AcDbEntity
  8
A-WALL
  6
ByLayer
 62
  256
370
   -3
100
AcDbLine
 10
36559.30107860373
 20
-428.9395204819273
 11
36559.31314333927
 21
-423.9395204819311
  0
LINE
  5
F7
100
AcDbEntity
  8
A-WALL
  6
ByLayer
 62
  256
370
   -3
100
AcDbLine
 10
36517.3
 20
-423.94
 11
36559.31314333927
 21
-423.9395204819311
  0
LINE
  5
F8
100
AcDbEntity
  8
A-WALL
  6
ByLayer
 62
  256
370
   -3
100
AcDbLine
 10
36629.33800960505
 20
-428.9395204819274
 11
36629.31314333927
 21
-423.9395204819311
  0
LINE
  5
F9
100
AcDbEntity
  8
A-WALL
  6
ByLayer
 62
  256
370
   -3
100
AcDbLine
 10
36522.3
 20
-428.94
 11
36559.30107860373
 21
-428.9395204819273
  0
LINE
  5
FA
100
AcDbEntity
  8
A-WALL
  6
ByLayer
 62
  256
370
   -3
100
AcDbLine
 10
36629.33800960505
 20
-428.9395204819274
 11
36666.31314333927
 21
-428.9395204819273
  0
LINE
  5
FB
100
AcDbEntity
  8
A-WALL
  6
ByLayer
 62
  256
370
   -3
100
AcDbLine
 10
36686.30310022816
 20
-428.9395204819275
 11
36686.31314333927
 21
-423.9395204819311
  0
LINE
  5
FC
100
AcDbEntity
  8
A-WALL
  6
ByLayer
 62
  256
370
   -3
100
AcDbLine
 10
36629.31314333927
 20
-423.9395204819311
 11
36686.31314333927
 21
-423.9395204819311
  0
LINE
  5
FD
100
AcDbEntity
  8
A-WALL
  6
ByLayer
 62
  256
370
   -3
100
AcDbLine
 10
36756.32159460741
 20
-428.9395204819275
 11
36756.31314333927
 21
-423.9395204819311
  0
LINE
  5
FE
100
AcDbEntity
  8
A-WALL
  6
ByLayer
 62
  256
370
   -3
100
AcDbLine
 10
36671.31314333927
 20
-428.9395204819273
 11
36686.30310022816
 21
-428.9395204819275
  0
LINE
  5
FF
100
AcDbEntity
  8
A-WALL
  6
ByLayer
 62
  256
370
   -3
100
AcDbLine
 10
36756.32159460741
 20
-428.9395204819275
 11
36771.31314333927
 21
-428.9395204819277
  0
LINE
  5
100
100
AcDbEntity
  8
A-WALL
  6
ByLayer
 62
  256
370
   -3
100
AcDbLine
 10
36756.31314333927
 20
-423.9395204819311
 11
36813.31314333927
 21
-423.9395204819311
  0
LINE
  5
101
100
AcDbEntity
  8
A-WALL
  6
ByLayer
 62
  256
370
   -3
100
AcDbLine
 10
36813.30261366288
 20
-428.9395204819274
 11
36813.31314333927
 21
-423.9395204819311
  0
LINE
  5
102
100
AcDbEntity
  8
A-WALL
  6
ByLayer
 62
  256
370
   -3
100
AcDbLine
 10
36883.31314333927
 20
-423.9395204819311
 11
36925.31314333927
 21
-423.9395204819273
  0
LINE
  5
103
100
AcDbEntity
  8
A-WALL
  6
ByLayer
 62
  256
370
   -3
100
AcDbLine
 10
36883.3119911081
 20
-428.9395204819273
 11
36883.31314333927
 21
-423.9395204819311
  0
LINE
  5
104
100
AcDbEntity
  8
A-WALL
  6
ByLayer
 62
  256
370
   -3
100
AcDbLine
 10
36776.31314333927
 20
-428.9395204819277
 11
36813.30261366288
 21
-428.9395204819274
  0
LINE
  5
105
100
AcDbEntity
  8
A-WALL
  6
ByLayer
 62
  256
370
   -3
100
AcDbLine
 10
36883.3119911081
 20
-428.9395204819273
 11
36920.31314333927
 21
-428.9395204819273
  0
ENDSEC
  0
SECTION
  2
OBJECTS
  0
DICTIONARY
  5
C
330
0
100
AcDbDictionary
281
    1
  3
ACAD_GROUP
350
D
  0
DICTIONARY
  5
D
330
C
100
AcDbDictionary
281
    1
  0
PLOTSETTINGS
  5
106
100
AcDbPlotSettings
  6
1x1
 40
0
 41
0
 42
0
 43
0
  0
ENDSEC
  0
EOF
